<svg width="1360" height="868" viewBox="0 0 1360 868" xmlns="http://www.w3.org/2000/svg" role="img" aria-labelledby="title desc">
  <title id="title">AGW Steer Sequence</title>
  <desc id="desc">运行中的同一条 SSE 流不断开；steer 通过独立 HTTP 请求注入新用户指令。</desc>

<defs>
  <marker id="arrow" markerWidth="10" markerHeight="10" refX="8" refY="5" orient="auto" markerUnits="strokeWidth">
    <path d="M0,0 L10,5 L0,10 z" fill="#29434e" />
  </marker>
  <style>
    .bg { fill: #fbfaf7; }
    .lane { stroke: #93a6ad; stroke-width: 2; }
    .node { stroke-width: 2; rx: 14; ry: 14; }
    .front { fill: #d9eefb; stroke: #19607e; }
    .gate { fill: #e8f4e8; stroke: #2e7d32; }
    .run { fill: #fff3d6; stroke: #a36f00; }
    .note { fill: #f4e6dc; stroke: #8f5f3d; }
    .accent { fill: #ede7fb; stroke: #6a4fb3; }
    .title { font: 700 28px "Helvetica Neue", Arial, sans-serif; fill: #1f2a30; }
    .subtitle { font: 600 18px "Helvetica Neue", Arial, sans-serif; fill: #1f2a30; }
    .text { font: 500 15px "Helvetica Neue", Arial, sans-serif; fill: #24343b; }
    .small { font: 500 13px "Helvetica Neue", Arial, sans-serif; fill: #485e67; }
    .tiny { font: 500 12px "Helvetica Neue", Arial, sans-serif; fill: #566c74; }
    .arrow { stroke: #29434e; stroke-width: 3; fill: none; marker-end: url(#arrow); }
    .dashed { stroke-dasharray: 8 6; }
    .panel { fill: #ffffff; stroke: #c7d3d8; stroke-width: 1.5; rx: 16; ry: 16; }
  </style>
</defs>
  <rect class="bg" x="0" y="0" width="1360" height="868" />
  <text class="title" x="52" y="58">AGW Steer Sequence</text>
  <text class="small" x="52" y="88">运行中的同一条 SSE 流不断开；steer 通过独立 HTTP 请求注入新用户指令。</text>
  <text class="subtitle" x="115" y="145">Frontend</text>
  <line class="lane" x1="170" y1="168" x2="170" y2="700" />
  <text class="subtitle" x="485" y="145">Gateway</text>
  <line class="lane" x1="540" y1="168" x2="540" y2="700" />
  <text class="subtitle" x="905" y="145">Run-Agent</text>
  <line class="lane" x1="960" y1="168" x2="960" y2="700" />
  <rect class="node front" x="60" y="166" width="220" height="48" />
  <text class="text" x="78" y="196">POST /api/query</text>
  <path class="arrow" d="M280 190 H422" />
  <rect class="node run" x="830" y="238" width="260" height="52" />
  <text class="text" x="848" y="268">request.query -> run.start</text>
  <path class="arrow dashed" d="M830 264 H548" />
  <path class="arrow dashed" d="M540 264 H178" />
  <rect class="node accent" x="810" y="306" width="300" height="64" />
  <text class="text" x="828" y="334">content.* / tool.* still streaming</text>
  <text class="small" x="828" y="356">原 Query 已在进行中</text>
  <path class="arrow dashed" d="M810 338 H548" />
  <path class="arrow dashed" d="M540 338 H178" />
  <rect class="node front" x="60" y="388" width="220" height="48" />
  <text class="text" x="78" y="418">POST /api/steer</text>
  <path class="arrow" d="M280 412 H422" />
  <rect class="node gate" x="430" y="462" width="220" height="48" />
  <text class="text" x="448" y="492">HTTP ack (accepted)</text>
  <path class="arrow" d="M430 486 H288" />
  <rect class="node run" x="830" y="534" width="260" height="52" />
  <text class="text" x="848" y="564">request.steer</text>
  <path class="arrow dashed" d="M830 560 H548" />
  <path class="arrow dashed" d="M540 560 H178" />
  <rect class="node accent" x="810" y="602" width="300" height="64" />
  <text class="text" x="828" y="630">Run continues on same SSE</text>
  <text class="small" x="828" y="652">后续继续输出 content.* / tool.* / run.complete</text>
  <path class="arrow dashed" d="M810 634 H548" />
  <path class="arrow dashed" d="M540 634 H178" />
  <rect class="panel" x="54" y="718" width="1252" height="130" />
  <text class="subtitle" x="78" y="748">图上要点</text>
  <text class="small" x="78" y="776">- request.steer 只出现在原 SSE 流中，不会开第二条事件流。</text>
  <text class="small" x="78" y="798">- steer 是同步确认、异步生效。</text>
  <text class="small" x="78" y="820">- 如果后续正常结束，仍由 run.complete 收尾。</text>
</svg>
